<svg xmlns="http://www.w3.org/2000/svg" aria-hidden="true" style="width:0;height:0;position:absolute;overflow:hidden"><defs><symbol id="icon-right-arrow" viewBox="0 0 32 32"><path stroke-linecap="round" stroke-linejoin="round" stroke-width="2.286" d="m11.5 7 9 9-9 9"/></symbol><symbol id="icon-left-arrow" viewBox="0 0 32 32"><path stroke-linecap="round" stroke-linejoin="round" stroke-width="2.286" d="m20.5 7-9 9 9 9"/></symbol><symbol id="icon-sun" viewBox="0 0 32 32"><path stroke-linecap="round" stroke-linejoin="round" stroke-width="2.327" d="M16.688 22.873c4.735 0 8.574-3.73 8.574-8.331s-3.839-8.331-8.574-8.331c-4.735 0-8.574 3.73-8.574 8.331s3.839 8.331 8.574 8.331z"/><path stroke-linecap="round" stroke-linejoin="round" stroke-width="2.909" d="m26.135 5.372.175-.17M7.069 23.896l.175-.17M16.69 1.563v-.105m0 26.182v-.105M3.324 14.549h-.108m26.947 0h-.108M7.245 5.372l-.175-.17m19.24 18.694-.175-.17"/></symbol><symbol id="icon-moon" viewBox="0 0 32 32"><path stroke-linecap="round" stroke-linejoin="round" stroke-width="2.133" d="M2.189 16.585c.515 7.14 6.772 12.948 14.261 13.267 5.283.222 10.008-2.163 12.843-5.92 1.174-1.539.544-2.565-1.417-2.218-.959.166-1.947.236-2.978.194-7.002-.277-12.729-5.947-12.757-12.643a11.998 11.998 0 0 1 1.074-5.06c.773-1.719-.157-2.537-1.947-1.802-5.67 2.315-9.55 7.847-9.078 14.182z"/></symbol><symbol id="icon-close" viewBox="0 0 32 32"><path stroke-linecap="round" stroke-linejoin="round" stroke-width="1.333" d="M23 23 9 9m14 0L9 23"/></symbol><symbol id="icon-for-button" viewBox="0 0 32 32"><path d="M4.708 4.708c6.26-6.26 16.391-6.28 22.627-.043s6.217 16.367-.043 22.627c-6.26 6.26-16.391 6.28-22.627.043s-6.217-16.367.043-22.627z" style="fill:"/><path fill="none" stroke="#000" stroke-linecap="round" stroke-width="2.133" d="M25.203 6.354c5.118 5.47 5.099 14.358-.043 19.853" style="stroke:var(--color11,#000)"/></symbol><symbol id="icon-star" viewBox="0 0 35 32"><path d="M26.861 30.551a1.093 1.093 0 0 1-.64-.204l-8.769-6.357-8.769 6.357a1.088 1.088 0 0 1-1.681-.556 1.088 1.088 0 0 1 .007-.677l3.42-10.13-8.864-6.078a1.095 1.095 0 0 1-.426-1.222 1.089 1.089 0 0 1 1.039-.77h10.935l3.3-10.156a1.096 1.096 0 0 1 1.038-.755 1.087 1.087 0 0 1 1.037.755l3.3 10.159h10.935a1.089 1.089 0 0 1 1.031 1.449c-.077.22-.222.41-.414.542l-8.867 6.075 3.418 10.127a1.09 1.09 0 0 1-1.031 1.44z"/></symbol><symbol id="icon-cross" viewBox="0 0 32 32"><path stroke-linejoin="round" stroke-linecap="round" stroke-width="2.667" d="M30 30 2 2m28 0L2 30"/></symbol><symbol id="icon-search" viewBox="0 0 32 32"><path d="M13.067 3.072a11.743 11.743 0 0 0-4.87 1.851l.043-.027a11.446 11.446 0 0 0-3.359 3.357l-.027.044a11.55 11.55 0 0 0-1.78 4.778l-.007.061a15.038 15.038 0 0 0 .006 3.126l-.006-.065a11.77 11.77 0 0 0 4.01 7.377l.016.013a11.722 11.722 0 0 0 5.982 2.67l.061.007a15.004 15.004 0 0 0 3.125-.006l-.065.006a11.607 11.607 0 0 0 5.525-2.266l-.029.021a4.26 4.26 0 0 1 .464-.328l.019-.011c.019 0 1.235 1.197 2.702 2.659 2.392 2.384 2.691 2.666 2.894 2.715.355.085.63-.01.95-.331.322-.32.416-.595.331-.95-.05-.203-.331-.502-2.715-2.894a151.22 151.22 0 0 1-2.611-2.652l-.048-.05c0-.019.152-.237.339-.483a11.532 11.532 0 0 0 2.238-5.436l.007-.06a15.004 15.004 0 0 0-.006-3.125l.006.065a11.776 11.776 0 0 0-2.691-6.06l.014.017a11.755 11.755 0 0 0-7.329-4.019l-.061-.007c-.779-.099-2.362-.098-3.13.005zm2.277 1.994c3.139.245 5.954 1.966 7.547 4.619a9.463 9.463 0 0 1 1.399 4.981 9.526 9.526 0 0 1-1.426 5.028l.024-.041c-.411.686-.693 1.04-1.363 1.725a9.046 9.046 0 0 1-2.828 2.022l-.056.023c-4.765 2.205-10.482.075-12.706-4.733-1.504-3.251-1.085-7.01 1.107-9.89a11.767 11.767 0 0 1 1.737-1.741l.022-.017a9.745 9.745 0 0 1 5.055-1.968l.038-.003c.762-.059.738-.059 1.451-.005z"/></symbol></defs></svg>